<svg xmlns="http://www.w3.org/2000/svg" viewBox="0 0 120 120" fill="none">
<defs><linearGradient id="g" x1="30" y1="10" x2="90" y2="108" gradientUnits="userSpaceOnUse"><stop stop-color="#FFF4BE"/><stop offset=".55" stop-color="#D9A441"/><stop offset="1" stop-color="#A86B19"/></linearGradient><linearGradient id="f" x1="60" y1="78" x2="60" y2="116"><stop stop-color="#FFF3A4"/><stop offset=".45" stop-color="#FF9F36"/><stop offset="1" stop-color="#F75B2B"/></linearGradient></defs>
<path d="M60 8c18 10 28 29 28 55 0 12-3 24-8 36H40c-5-12-8-24-8-36 0-26 10-45 28-55Z" fill="url(#g)" stroke="#7E4B12" stroke-width="3"/>
<circle cx="60" cy="45" r="13" fill="#FFF8DE" stroke="#865013" stroke-width="4"/>
<path d="M40 77 19 92l5-31 16 6v10ZM80 77l21 15-5-31-16 6v10Z" fill="#EFC760" stroke="#7E4B12" stroke-width="3"/>
<path d="M47 99h26l-13 18-13-18Z" fill="url(#f)"/>
<path d="M54 69h12v20H54z" fill="#fff1b2" opacity=".85"/>
</svg>
