<svg xmlns="http://www.w3.org/2000/svg" viewBox="0 0 32 32"><path fill="#fff" d="M16 3C9.4 3 4 8.2 4 14.7c0 2.5.8 4.8 2.2 6.7L4.8 29l7.8-2c1 .3 2.2.5 3.4.5 6.6 0 12-5.2 12-11.7S22.6 3 16 3zm0 22.4c-1.1 0-2.1-.2-3.1-.5l-.5-.2-4.6 1.2.9-4.5-.3-.5c-1.4-1.8-2.1-3.9-2.1-6.2C6.3 9.4 10.6 5 16 5s9.7 4.4 9.7 9.7-4.3 10.7-9.7 10.7zm5.5-7.9c-.3-.2-1.8-.9-2.1-1s-.5-.2-.7.2-.8 1-1 1.2-.4.2-.7.1c-.3-.2-1.3-.5-2.5-1.5-.9-.8-1.5-1.8-1.7-2.1-.2-.3 0-.5.1-.7.1-.1.3-.4.5-.5.2-.2.2-.3.3-.5.1-.2 0-.4 0-.5s-.7-1.7-1-2.3c-.3-.6-.5-.5-.7-.5h-.6c-.2 0-.5.1-.8.4-.3.3-1 1-1 2.4s1.1 2.8 1.2 3c.2.2 2.1 3.2 5.1 4.5.7.3 1.3.5 1.7.6.7.2 1.4.2 1.9.1.6-.1 1.8-.7 2-1.4.3-.7.3-1.3.2-1.4 0-.1-.2-.2-.5-.4z"/></svg>
